<?xml version="1.0" encoding="UTF-8"?>
<svg xmlns="http://www.w3.org/2000/svg" width="320" height="320" viewBox="0 0 320 320">
  <defs>
    <linearGradient id="g" x1="0" x2="0" y1="0" y2="1">
      <stop offset="0" stop-color="#57e389" stop-opacity="0.95"/>
      <stop offset="1" stop-color="#0fb9b1" stop-opacity="0.95"/>
    </linearGradient>
    <filter id="s" x="-20%" y="-20%" width="140%" height="140%">
      <feDropShadow dx="0" dy="10" stdDeviation="10" flood-color="#000" flood-opacity="0.18"/>
    </filter>
  </defs>
  <rect width="320" height="320" rx="24" fill="#fff"/>
  <g filter="url(#s)">
    <path d="M80 60h160l-70 80v45c0 35-50 35-50 0v-45L80 60z" fill="#ffffff" stroke="#111" stroke-width="6" stroke-linejoin="round"/>
    <path d="M115 145h90" stroke="#111" stroke-width="6" stroke-linecap="round"/>
    <path d="M110 70h100l-45 50v55c0 18-30 18-30 0v-55l-25-50z" fill="url(#g)" opacity="0.92"/>
    <circle cx="210" cy="120" r="10" fill="#fff" opacity="0.7"/>
    <circle cx="130" cy="120" r="8" fill="#fff" opacity="0.55"/>
    <path d="M230 60l24-24" stroke="#111" stroke-width="6" stroke-linecap="round"/>
    <path d="M200 60l14-26" stroke="#111" stroke-width="6" stroke-linecap="round"/>
  </g>
  <text x="160" y="290" text-anchor="middle" font-family="Arial, sans-serif" font-size="18" fill="#111" opacity="0.75">Cocktail</text>
</svg>
