<svg xmlns="http://www.w3.org/2000/svg" width="600" height="600" viewBox="0 0 600 600">
<rect width="600" height="600" fill="#ffffff"/>
<g fill="none" stroke="#111" stroke-width="10" stroke-linecap="round" stroke-linejoin="round">
  <path d="M180 120h240l-70 150v70c0 40 30 70 70 70h20"/>
  <path d="M420 120l-70 150v70c0 40-30 70-70 70h-20"/>
  <path d="M300 410v100"/>
  <path d="M250 510h100"/>
</g>
<path d="M205 140h190l-55 120v55c0 28-22 50-50 50h-30c-28 0-50-22-50-50v-55z" fill="#f97316" opacity="0.85"/>
<circle cx="240" cy="210" r="18" fill="#fff" opacity="0.35"/>
<circle cx="325" cy="240" r="22" fill="#fff" opacity="0.25"/>
<text x="300" y="560" text-anchor="middle" font-family="Arial, Helvetica, sans-serif" font-size="28" fill="#111">Cocktail 2</text>
</svg>
